#!OML:ASF F:\VICON\USERDATA\INSTALL\SteveWalk\SteveWalk.ASF
:FULLY-SPECIFIED
:DEGREES
91
root 0.149846 15.8522 -24.532 18.3678 9.33102 -1.46786
lowerback -14.7362 -2.65355 0.139243
upperback -5.06022 -3.61064 2.49509
thorax 3.05288 -1.77546 1.91604
lowerneck -4.5623 -1.8756 0.198364
upperneck 8.09786 -2.49093 -0.482446
head 3.39942 -1.24771 -0.300249
rclavicle -4.67641e-014 1.43125e-014
rhumerus -99.6239 -37.4896 11.1662
rradius 10.5965
rwrist 73.0287
rhand -12.5777 -29.9772
rfingers 7.12502
rthumb 13.5003 -59.5197
lclavicle -4.67641e-014 1.43125e-014
lhumerus -26.8968 -4.19958 85.1179
lradius 55.8897
lwrist 6.54034
lhand -24.6263 -21.5112
lfingers 7.12502
lthumb 1.87253 8.46029
rfemur -53.9234 -1.95652 26.1955
rtibia 35.8687
rfoot -5.83287 2.56773
rtoes -23.4551
lfemur -3.14115 -0.270807 -16.4418
ltibia 36.4343
lfoot 3.45283 -18.737
ltoes -9.29668
92
root 0.167912 15.8626 -24.2864 18.1838 8.9734 -1.56139
lowerback -14.5012 -2.52081 0.567417
upperback -5.00167 -3.4959 2.53531
thorax 2.96182 -1.72074 1.7455
lowerneck -4.75358 -1.75893 0.233633
upperneck 7.86462 -2.31826 -0.714533
head 3.35284 -1.17058 -0.374806
rclavicle 8.03587e-014 7.95139e-016
rhumerus -96.5999 -38.5132 6.51206
rradius 10.7572
rwrist 69.5113
rhand -12.4312 -31.3862
rfingers 7.12502
rthumb 13.6415 -60.9192
lclavicle 8.03587e-014 7.95139e-016
lhumerus -27.7869 -3.68575 85.1983
lradius 55.9428
lwrist 7.11186
lhand -24.9395 -21.406
lfingers 7.12502
lthumb 1.56997 8.56801
rfemur -53.6385 -1.39643 26.1483
rtibia 37.484
rfoot -6.37821 3.17081
rtoes -17.2844
lfemur -4.31445 -0.279467 -16.3109
ltibia 39.3561
lfoot 8.24806 -18.9223
ltoes -4.79994
93
root 0.183102 15.8787 -24.0472 18.0864 8.67407 -1.59807
lowerback -14.368 -2.41228 0.884807
upperback -4.95846 -3.39566 2.53539
thorax 2.91456 -1.67273 1.5885
lowerneck -4.91745 -1.63962 0.155546
upperneck 7.70661 -2.15476 -0.686036
head 3.3319 -1.09088 -0.345384
rclavicle 5.61194e-014 1.47101e-014
rhumerus -95.6588 -39.3711 5.20344
rradius 10.8664
rwrist 68.542
rhand -12.4478 -32.2436
rfingers 7.12502
rthumb 13.6255 -61.7777
lclavicle 5.61194e-014 1.47101e-014
lhumerus -28.6561 -3.41961 85.234
lradius 55.9038
lwrist 7.91238
lhand -25.174 -20.934
lfingers 7.12502
lthumb 1.34354 9.04151
rfemur -53.2887 -1.13657 26.2593
rtibia 38.7097
rfoot -6.8668 3.49414
rtoes -11.9369
lfemur -5.7572 -0.311909 -16.2535
ltibia 42.3445
lfoot 11.1789 -19.6587
ltoes -5.62213
94
root 0.190861 15.898 -23.8132 17.8302 8.4576 -1.78455
lowerback -14.0929 -2.28521 1.21742
upperback -4.89393 -3.27015 2.56176
thorax 2.81448 -1.61244 1.45925
lowerneck -5.01535 -1.52259 0.0247085
upperneck 7.7092 -2.00277 -0.495265
head 3.35593 -1.01184 -0.254896
rclavicle 2.0773e-014 -1.66979e-014
rhumerus -95.1851 -40.2899 4.53696
rradius 10.9359
rwrist 67.8138
rhand -12.5418 -32.8329
rfingers 7.12502
rthumb 13.5349 -62.373
lclavicle 2.0773e-014 -1.66979e-014
lhumerus -29.4295 -3.24897 85.304
lradius 55.6388
lwrist 8.7918
lhand -25.0618 -20.8
lfingers 7.12502
lthumb 1.45193 9.17484
rfemur -52.6174 -1.04586 26.6635
rtibia 39.6526
rfoot -7.48263 3.48214
rtoes -9.18217
lfemur -7.06027 -0.397467 -15.9944
ltibia 45.3653
lfoot 14.1516 -20.2046
ltoes -8.9799
95
root 0.197786 15.9232 -23.581 17.6359 8.36371 -1.9359
lowerback -13.8958 -2.19104 1.50525
upperback -4.79768 -3.18329 2.58755
thorax 2.79342 -1.57068 1.34385
lowerneck -5.17211 -1.50924 -0.0761689
upperneck 7.75463 -1.98562 -0.381355
head 3.40444 -1.00176 -0.201384
rclavicle 1.31571e-014 -1.66979e-014
rhumerus -93.0962 -41.2458 1.36833
rradius 10.995
rwrist 65.4331
rhand -12.8806 -33.7475
rfingers 7.12502
rthumb 13.2083 -63.309
lclavicle 1.31571e-014 -1.66979e-014
lhumerus -29.8925 -3.05553 85.4052
lradius 54.9354
lwrist 9.24903
lhand -25.0925 -21.1122
lfingers 7.12502
lthumb 1.42221 8.8628
rfemur -51.8761 -1.3374 27.1904
rtibia 40.3612
rfoot -8.20211 3.95005
rtoes -7.14277
lfemur -8.51777 -0.618877 -15.7394
ltibia 48.4354
lfoot 16.2285 -20.1593
ltoes -11.2819
96
root 0.204822 15.9514 -23.3485 17.5961 8.41069 -1.88029
lowerback -13.7915 -2.16292 1.51222
upperback -4.84632 -3.14318 2.61622
thorax 2.68691 -1.5512 1.38133
lowerneck -5.19693 -1.56628 -0.0155159
upperneck 7.91562 -2.05741 -0.495847
head 3.46305 -1.04016 -0.254131
rclavicle -4.91122e-014 -4.37326e-015
rhumerus -91.1929 -41.9595 -1.39586
rradius 11.077
rwrist 63.2684
rhand -13.239 -34.3705
rfingers 7.12502
rthumb 12.8628 -63.9541
lclavicle -4.91122e-014 -4.37326e-015
lhumerus -30.3029 -3.00095 85.7031
lradius 53.9559
lwrist 9.6698
lhand -25.2618 -20.8175
lfingers 7.12502
lthumb 1.25872 9.15855
rfemur -51.2027 -1.74908 27.474
rtibia 40.8879
rfoot -9.06419 4.62968
rtoes -5.39286
lfemur -10.2562 -0.932089 -15.6926
ltibia 51.4907
lfoot 18.7398 -19.4959
ltoes -13.3676
97
root 0.209179 15.9721 -23.1209 17.5957 8.46919 -1.89583
lowerback -13.7856 -2.1116 1.54273
upperback -4.86724 -3.07961 2.65835
thorax 2.66148 -1.51947 1.41897
lowerneck -5.39352 -1.57967 0.0619287
upperneck 8.14183 -2.07803 -0.537038
head 3.57884 -1.04969 -0.286161
rclavicle 2.60284e-014 -1.63003e-014
rhumerus -87.922 -42.5969 -6.17536
rradius 11.2554
rwrist 59.6913
rhand -13.3935 -35.6706
rfingers 7.12502
rthumb 12.7139 -65.2635
lclavicle 2.60284e-014 -1.63003e-014
lhumerus -30.5724 -3.02013 86.0475
lradius 52.8167
lwrist 10.1578
lhand -25.2245 -20.2366
lfingers 7.12502
lthumb 1.29474 9.7392
rfemur -50.5048 -1.90775 27.7139
rtibia 41.3071
rfoot -10.2737 4.39286
rtoes -8.47019
lfemur -12.0659 -1.09112 -15.5384
ltibia 54.5124
lfoot 19.8865 -18.6795
ltoes -16.688
98
root 0.211649 15.9963 -22.8975 17.5939 8.73636 -2.08949
lowerback -13.927 -2.08081 1.75413
upperback -4.77868 -3.0774 2.75488
thorax 2.82456 -1.51729 1.39438
lowerneck -5.64534 -1.56869 0.07161
upperneck 8.2496 -2.06904 -0.478512
head 3.6665 -1.04238 -0.27192
rclavicle -1.97915e-014 9.54166e-015
rhumerus -84.1906 -43.1694 -11.4626
rradius 11.4666
rwrist 56.1089
rhand -13.2939 -36.6829
rfingers 7.12502
rthumb 12.8099 -66.2699
lclavicle -1.97915e-014 9.54166e-015
lhumerus -30.5885 -3.02769 86.3196
lradius 51.3964
lwrist 10.3228
lhand -24.9961 -20.2431
lfingers 7.12502
lthumb 1.51535 9.73127
rfemur -49.7345 -2.09732 28.1281
rtibia 41.6157
rfoot -11.4358 3.8633
rtoes -11.8264
lfemur -13.941 -1.20376 -15.1318
ltibia 57.432
lfoot 18.6566 -17.6423
ltoes -19.5107
99
root 0.213322 16.022 -22.6804 17.706 8.97271 -2.16897
lowerback -13.9954 -2.03956 1.83423
upperback -4.89473 -3.03381 2.8434
thorax 2.73952 -1.49556 1.44916
lowerneck -5.58435 -1.60433 -0.175127
upperneck 8.54004 -2.10995 -0.30333
head 3.7617 -1.06277 -0.174536
rclavicle 2.15681e-014 -7.95139e-015
rhumerus -82.3704 -43.7989 -13.7238
rradius 11.5098
rwrist 54.9153
rhand -13.3097 -36.1666
rfingers 7.12502
rthumb 12.7946 -65.7545
lclavicle 2.15681e-014 -7.95139e-015
lhumerus -30.6729 -2.87835 86.7244
lradius 49.5198
lwrist 9.85386
lhand -24.8402 -20.2775
lfingers 7.12502
lthumb 1.66592 9.69572
rfemur -49.0606 -2.1481 28.336
rtibia 41.8509
rfoot -12.3738 3.39595
rtoes -10.6963
lfemur -16.0337 -1.25801 -14.8778
ltibia 60.2851
lfoot 17.8781 -16.7251
ltoes -20.7641
100
root 0.217633 16.0495 -22.465 17.7853 9.04121 -2.44615
lowerback -14.0955 -1.90842 2.08702
upperback -4.9756 -2.89817 2.96035
thorax 2.69972 -1.42841 1.44974
lowerneck -5.58826 -1.67737 -0.223508
upperneck 8.84601 -2.20174 -0.321859
head 3.87095 -1.11046 -0.179155
rclavicle 5.81197e-014 -7.55382e-015
rhumerus -80.7906 -44.5642 -15.5008
rradius 11.5334
rwrist 53.9315
rhand -13.659 -34.2107
rfingers 7.12502
rthumb 12.4579 -63.8194
lclavicle 5.81197e-014 -7.55382e-015
lhumerus -30.7787 -2.6763 87.0825
lradius 47.7109
lwrist 9.21157
lhand -24.5372 -20.2372
lfingers 7.12502
lthumb 1.95858 9.73358
rfemur -48.289 -2.07892 28.7503
rtibia 41.9462
rfoot -13.1855 2.95085
rtoes -9.14299
lfemur -18.1061 -1.00586 -14.4955
ltibia 63.0117
lfoot 18.402 -15.4127
ltoes -8.19886
101
root 0.227178 16.0788 -22.2547 17.8655 8.85342 -2.45473
lowerback -14.236 -1.79368 2.03459
upperback -4.94952 -2.74812 3.02182
thorax 2.80628 -1.35228 1.56299
lowerneck -5.49945 -1.72272 -0.289291
upperneck 8.82857 -2.25167 -0.375993
head 3.84733 -1.13978 -0.186859
rclavicle 1.14301e-014 -9.93923e-015
rhumerus -76.5544 -44.7858 -20.8124
rradius 11.8939
rwrist 50.281
rhand -13.0978 -33.498
rfingers 7.12502
rthumb 12.9989 -63.073
lclavicle 1.14301e-014 -9.93923e-015
lhumerus -30.8088 -2.46671 87.3978
lradius 45.9619
lwrist 8.52654
lhand -24.3983 -20.0763
lfingers 7.12502
lthumb 2.09273 9.8932
rfemur -47.4804 -1.96108 28.7749
rtibia 41.9603
rfoot -13.9519 2.72431
rtoes -8.01459
lfemur -20.1414 -0.502523 -14.6174
ltibia 65.5776
lfoot 10.8631 -14.1804
ltoes -26.5145
102
root 0.237779 16.1102 -22.0448 17.9542 8.59608 -2.59005
lowerback -14.376 -1.60792 2.09793
upperback -4.99795 -2.5177 3.10796
thorax 2.82821 -1.2371 1.65247
lowerneck -5.22702 -1.75987 -0.379798
upperneck 8.81283 -2.29047 -0.419191
head 3.78864 -1.1639 -0.183849
rclavicle 1.78906e-014 1.59028e-015
rhumerus -70.7355 -43.9182 -28.4808
rradius 12.5977
rwrist 44.5922
rhand -12.3858 -34.0334
rfingers 7.12502
rthumb 13.6852 -63.5634
lclavicle 1.78906e-014 1.59028e-015
lhumerus -30.8916 -2.26878 87.7609
lradius 44.0101
lwrist 7.61472
lhand -24.2208 -19.7784
lfingers 7.12502
lthumb 2.26413 10.1893
rfemur -46.6637 -1.93931 28.9822
rtibia 41.8828
rfoot -14.5931 2.7283
rtoes -7.3384
lfemur -22.1188 0.133142 -14.6483
ltibia 67.936
lfoot 8.35352 -12.8102
ltoes -27.2061
